<?xml version="1.0" encoding="UTF-8"?>
<!DOCTYPE svg PUBLIC "-//W3C//DTD SVG 1.1//EN" "http://www.w3.org/Graphics/SVG/1.1/DTD/svg11.dtd">
<svg xmlns="http://www.w3.org/2000/svg" version="1.1" width="458px" height="527px" style="shape-rendering:geometricPrecision; text-rendering:geometricPrecision; image-rendering:optimizeQuality; fill-rule:evenodd; clip-rule:evenodd" xmlns:xlink="http://www.w3.org/1999/xlink">
<g><path style="opacity:1" fill="#040302" d="M 70.5,5.5 C 71.2389,5.36899 71.9056,5.53566 72.5,6C 86.3159,24.9478 104.983,33.2811 128.5,31C 147.177,27.4952 163.177,18.9952 176.5,5.5C 200.267,33.3575 228.601,39.1908 261.5,23C 268.81,17.8539 275.476,12.0206 281.5,5.5C 298.723,24.2771 320.057,32.7771 345.5,31C 362.363,27.636 376.03,19.136 386.5,5.5C 402.69,25.1887 418.69,45.022 434.5,65C 422.882,80.1884 417.048,97.3551 417,116.5C 418.003,123.839 420.67,130.505 425,136.5C 432.037,145.205 440.037,152.871 449,159.5C 448.716,168.933 447.383,178.267 445,187.5C 431.337,242.852 409.337,294.519 379,342.5C 336.702,407.321 286.535,465.654 228.5,517.5C 165.503,461.702 112.336,398.035 69,326.5C 38.7535,275.607 18.2535,220.94 7.5,162.5C 8.21864,160.272 9.55197,158.439 11.5,157C 28.3095,146.033 38.3095,130.7 41.5,111C 39.4202,94.0872 33.4202,78.7539 23.5,65C 39.2907,45.245 54.9573,25.4117 70.5,5.5 Z"/></g>
<g><path style="opacity:1" fill="#fcca00" d="M 419.5,157.5 C 292.5,158.833 165.5,158.833 38.5,157.5C 59.5453,135.434 64.3787,110.101 53,81.5C 50.5,76.5 48,71.5 45.5,66.5C 54.0187,54.8024 63.0187,43.4691 72.5,32.5C 95.2241,49.7246 120.224,53.8912 147.5,45C 157.524,41.4879 166.858,36.6546 175.5,30.5C 211.027,57.0861 246.527,57.0861 282,30.5C 303.144,45.8617 326.644,51.695 352.5,48C 364.67,45.506 375.503,40.3393 385,32.5C 394.356,43.6886 403.523,55.0219 412.5,66.5C 395.759,91.3539 394.259,117.021 408,143.5C 411.32,148.647 415.153,153.314 419.5,157.5 Z"/></g>
<g><path style="opacity:1" fill="#040200" d="M 141.5,115.5 C 148.892,113.586 156.559,112.919 164.5,113.5C 167.075,130.906 159.742,140.406 142.5,142C 123.781,142.948 105.114,142.614 86.5,141C 76.8922,138.056 71.7255,131.556 71,121.5C 70.0779,108.443 70.4112,95.4434 72,82.5C 74.4893,74.3253 79.9893,69.4919 88.5,68C 105.798,66.4378 123.132,66.1045 140.5,67C 158.507,67.5075 166.174,76.6742 163.5,94.5C 156.167,94.5 148.833,94.5 141.5,94.5C 141.755,90.5075 140.089,87.6742 136.5,86C 124.833,85.3333 113.167,85.3333 101.5,86C 97.9798,86.504 95.4798,88.3374 94,91.5C 93.3333,99.8333 93.3333,108.167 94,116.5C 95.9272,121.059 99.4272,123.559 104.5,124C 115.966,125.124 127.3,124.457 138.5,122C 140.451,120.266 141.451,118.099 141.5,115.5 Z"/></g>
<g><path style="opacity:1" fill="#040200" d="M 177.5,67.5 C 201.836,67.3334 226.169,67.5 250.5,68C 262.349,68.654 270.183,74.4873 274,85.5C 274.909,99.5472 274.575,113.547 273,127.5C 270,136.147 263.833,140.647 254.5,141C 228.835,141.5 203.169,141.667 177.5,141.5C 177.5,116.833 177.5,92.1667 177.5,67.5 Z"/></g>
<g><path style="opacity:1" fill="#362b00" d="M 321.5,68.5 C 310.5,68.5 299.5,68.5 288.5,68.5C 288.5,92.8333 288.5,117.167 288.5,141.5C 287.502,117.006 287.169,92.339 287.5,67.5C 299.012,67.1719 310.346,67.5052 321.5,68.5 Z"/></g>
<g><path style="opacity:1" fill="#020100" d="M 321.5,68.5 C 335.879,85.5439 349.879,102.877 363.5,120.5C 363.56,121.043 363.893,121.376 364.5,121.5C 365.5,103.846 365.833,86.1792 365.5,68.5C 372.5,68.5 379.5,68.5 386.5,68.5C 386.5,92.8333 386.5,117.167 386.5,141.5C 375.48,141.832 364.48,141.499 353.5,140.5C 339.144,123.312 324.978,105.979 311,88.5C 310.5,106.164 310.333,123.83 310.5,141.5C 303.167,141.5 295.833,141.5 288.5,141.5C 288.5,117.167 288.5,92.8333 288.5,68.5C 299.5,68.5 310.5,68.5 321.5,68.5 Z"/></g>
<g><path style="opacity:1" fill="#6c5600" d="M 365.5,67.5 C 365.5,67.8333 365.5,68.1667 365.5,68.5C 365.833,86.1792 365.5,103.846 364.5,121.5C 363.893,121.376 363.56,121.043 363.5,120.5C 364.167,102.833 364.833,85.1667 365.5,67.5 Z"/></g>
<g><path style="opacity:1" fill="#302600" d="M 365.5,68.5 C 365.5,68.1667 365.5,67.8333 365.5,67.5C 372.833,67.5 380.167,67.5 387.5,67.5C 387.831,92.339 387.498,117.006 386.5,141.5C 386.5,117.167 386.5,92.8333 386.5,68.5C 379.5,68.5 372.5,68.5 365.5,68.5 Z"/></g>
<g><path style="opacity:1" fill="#947600" d="M 239.5,86.5 C 226.5,86.5 213.5,86.5 200.5,86.5C 200.5,98.8333 200.5,111.167 200.5,123.5C 199.505,111.011 199.171,98.3443 199.5,85.5C 213.01,85.1711 226.344,85.5044 239.5,86.5 Z"/></g>
<g><path style="opacity:1" fill="#fecb00" d="M 239.5,86.5 C 245.003,86.1827 248.836,88.516 251,93.5C 251.667,101.5 251.667,109.5 251,117.5C 249.272,120.953 246.438,122.786 242.5,123C 228.504,123.5 214.504,123.667 200.5,123.5C 200.5,111.167 200.5,98.8333 200.5,86.5C 213.5,86.5 226.5,86.5 239.5,86.5 Z"/></g>
<g><path style="opacity:1" fill="#745d00" d="M 164.5,113.5 C 156.559,112.919 148.892,113.586 141.5,115.5C 141.5,114.5 141.5,113.5 141.5,112.5C 149.352,112.175 157.018,112.508 164.5,113.5 Z"/></g>
<g><path style="opacity:1" fill="#917400" d="M 38.5,157.5 C 165.5,158.833 292.5,158.833 419.5,157.5C 420.043,157.56 420.376,157.893 420.5,158.5C 292.833,159.833 165.167,159.833 37.5,158.5C 37.6236,157.893 37.9569,157.56 38.5,157.5 Z"/></g>
<g><path style="opacity:1" fill="#fcca00" d="M 142.5,176.5 C 142.833,251.002 142.499,325.335 141.5,399.5C 120.881,374.368 102.381,347.701 86,319.5C 85.5,271.834 85.3333,224.168 85.5,176.5C 104.5,176.5 123.5,176.5 142.5,176.5 Z"/></g>
<g><path style="opacity:1" fill="#987900" d="M 142.5,176.5 C 143.832,251.001 143.832,325.668 142.5,400.5C 141.893,400.376 141.56,400.043 141.5,399.5C 142.499,325.335 142.833,251.002 142.5,176.5 Z"/></g>
<g><path style="opacity:1" fill="#fecb00" d="M 200.5,177.5 C 219.167,177.5 237.833,177.5 256.5,177.5C 256.5,273.5 256.5,369.5 256.5,465.5C 247.821,475.179 238.488,484.179 228.5,492.5C 219.181,483.681 210.014,474.681 201,465.5C 200.5,369.501 200.333,273.501 200.5,177.5 Z"/></g>
<g><path style="opacity:1" fill="#cfa500" d="M 200.5,177.5 C 219.326,176.503 238.326,176.17 257.5,176.5C 257.833,273.001 257.499,369.335 256.5,465.5C 256.5,369.5 256.5,273.5 256.5,177.5C 237.833,177.5 219.167,177.5 200.5,177.5 Z"/></g>
<g><path style="opacity:1" fill="#e3b500" d="M 371.5,177.5 C 352.833,177.5 334.167,177.5 315.5,177.5C 315.167,251.335 315.501,325.002 316.5,398.5C 316.217,399.289 315.717,399.956 315,400.5C 314.5,325.834 314.333,251.167 314.5,176.5C 333.674,176.17 352.674,176.503 371.5,177.5 Z"/></g>
<g><path style="opacity:1" fill="#fecb00" d="M 371.5,177.5 C 371.667,225.168 371.5,272.834 371,320.5C 354.535,347.79 336.368,373.79 316.5,398.5C 315.501,325.002 315.167,251.335 315.5,177.5C 334.167,177.5 352.833,177.5 371.5,177.5 Z"/></g>
</svg>
