<svg xmlns="http://www.w3.org/2000/svg" width="458" height="527" style="shape-rendering:geometricPrecision;text-rendering:geometricPrecision;image-rendering:optimizeQuality;fill-rule:evenodd;clip-rule:evenodd"><path fill="#040302" d="M70.5 5.5a2.427 2.427 0 0 1 2 .5c13.816 18.948 32.483 27.281 56 25 18.677-3.505 34.677-12.005 48-25.5 23.767 27.858 52.101 33.69 85 17.5a125.49 125.49 0 0 0 20-17.5c17.223 18.777 38.557 27.277 64 25.5 16.863-3.364 30.53-11.864 41-25.5a4080.67 4080.67 0 0 1 48 59.5c-11.618 15.188-17.452 32.355-17.5 51.5 1.003 7.339 3.67 14.005 8 20a130.617 130.617 0 0 0 24 23 127.005 127.005 0 0 1-4 28c-13.663 55.352-35.663 107.019-66 155-42.298 64.821-92.465 123.154-150.5 175-62.997-55.798-116.164-119.465-159.5-191-30.246-50.893-50.746-105.56-61.5-164 .719-2.228 2.052-4.061 4-5.5 16.81-10.967 26.81-26.3 30-46-2.08-16.913-8.08-32.246-18-46a6568.956 6568.956 0 0 0 47-59.5Z" style="opacity:1"/><path fill="#fcca00" d="M419.5 157.5c-127 1.333-254 1.333-381 0 21.045-22.066 25.879-47.399 14.5-76l-7.5-15a520.86 520.86 0 0 1 27-34c22.724 17.225 47.724 21.391 75 12.5a111.697 111.697 0 0 0 28-14.5c35.527 26.586 71.027 26.586 106.5 0 21.144 15.362 44.644 21.195 70.5 17.5 12.17-2.494 23.003-7.66 32.5-15.5a1337.137 1337.137 0 0 1 27.5 34c-16.741 24.854-18.241 50.521-4.5 77a78.218 78.218 0 0 0 11.5 14Z" style="opacity:1"/><path fill="#040200" d="M141.5 115.5c7.392-1.914 15.059-2.581 23-2 2.575 17.406-4.758 26.906-22 28.5a408.392 408.392 0 0 1-56-1c-9.608-2.944-14.775-9.444-15.5-19.5a202.356 202.356 0 0 1 1-39c2.49-8.175 7.99-13.008 16.5-14.5a367.202 367.202 0 0 1 52-1c18.007.507 25.674 9.674 23 27.5h-22c.255-3.993-1.411-6.826-5-8.5a306.485 306.485 0 0 0-35 0c-3.52.504-6.02 2.337-7.5 5.5a156.492 156.492 0 0 0 0 25c1.927 4.559 5.427 7.059 10.5 7.5 11.466 1.124 22.8.457 34-2 1.951-1.734 2.951-3.901 3-6.5ZM177.5 67.5c24.336-.167 48.669 0 73 .5 11.849.654 19.683 6.487 23.5 17.5a237.169 237.169 0 0 1-1 42c-3 8.647-9.167 13.147-18.5 13.5-25.665.5-51.331.667-77 .5v-74Z" style="opacity:1"/><path fill="#362b00" d="M321.5 68.5h-33v73a1369.272 1369.272 0 0 1-1-74c11.512-.328 22.846.005 34 1Z" style="opacity:1"/><path fill="#020100" d="M321.5 68.5a1562.062 1562.062 0 0 1 42 52c.06.543.393.876 1 1a702.8 702.8 0 0 0 1-53h21v73c-11.02.332-22.02-.001-33-1a3152.994 3152.994 0 0 1-42.5-52c-.5 17.664-.667 35.33-.5 53h-22v-73h33Z" style="opacity:1"/><path fill="#6c5600" d="M365.5 67.5v1a702.8 702.8 0 0 1-1 53c-.607-.124-.94-.457-1-1l2-53Z" style="opacity:1"/><path fill="#302600" d="M365.5 68.5v-1h22c.331 24.839-.002 49.506-1 74v-73h-21Z" style="opacity:1"/><path fill="#947600" d="M239.5 86.5h-39v37a361.606 361.606 0 0 1-1-38c13.51-.329 26.844.004 40 1Z" style="opacity:1"/><path fill="#fecb00" d="M239.5 86.5c5.503-.317 9.336 2.016 11.5 7 .667 8 .667 16 0 24-1.728 3.453-4.562 5.286-8.5 5.5-13.996.5-27.996.667-42 .5v-37h39Z" style="opacity:1"/><path fill="#745d00" d="M164.5 113.5c-7.941-.581-15.608.086-23 2v-3c7.852-.325 15.518.008 23 1Z" style="opacity:1"/><path fill="#917400" d="M38.5 157.5c127 1.333 254 1.333 381 0 .543.06.876.393 1 1a18341.21 18341.21 0 0 1-383 0c.124-.607.457-.94 1-1Z" style="opacity:1"/><path fill="#fcca00" d="M142.5 176.5c.333 74.502-.001 148.835-1 223a605.034 605.034 0 0 1-55.5-80c-.5-47.666-.667-95.332-.5-143h57Z" style="opacity:1"/><path fill="#987900" d="M142.5 176.5a6278.77 6278.77 0 0 1 0 224c-.607-.124-.94-.457-1-1 .999-74.165 1.333-148.498 1-223Z" style="opacity:1"/><path fill="#fecb00" d="M200.5 177.5h56v288a267.738 267.738 0 0 1-28 27 1049.015 1049.015 0 0 1-27.5-27c-.5-95.999-.667-191.999-.5-288Z" style="opacity:1"/><path fill="#cfa500" d="M200.5 177.5a813 813 0 0 1 57-1c.333 96.501-.001 192.835-1 289v-288h-56Z" style="opacity:1"/><path fill="#e3b500" d="M371.5 177.5h-56c-.333 73.835.001 147.502 1 221-.283.789-.783 1.456-1.5 2-.5-74.666-.667-149.333-.5-224a813 813 0 0 1 57 1Z" style="opacity:1"/><path fill="#fecb00" d="M371.5 177.5c.167 47.668 0 95.334-.5 143a708.067 708.067 0 0 1-54.5 78 12209.106 12209.106 0 0 1-1-221h56Z" style="opacity:1"/></svg>